# xmcd CD database file
#
# Track frame offsets:
#	150
#	21853
#	37652
#	52355
#	74450
#	103048
#	127327
#	135503
#	146677
#	158327
#	162729
#	185301
#	210192
#	238529
#	263650
#
# Disc length: 3648 seconds
#
# Revision: 2
# Processed by: cddbd v1.5.2PL0 Copyright (c) Steve Scherf et al.
# Submitted via: CDex 1.51
#
DISCID=d20e3e0f
DTITLE=Affinity - Origins 1965-67
DYEAR=1965
DGENRE=Progressive Rock
TTITLE0=Autumn Leaves
TTITLE1=Django
TTITLE2=My Funny Valentine
TTITLE3=I Got Plenty
TTITLE4=Dat Dere
TTITLE5=Lover Man
TTITLE6=Blues Etude
TTITLE7=Some Day My Prince Will Come
TTITLE8=Cubano Chant
TTITLE9=Jordu
TTITLE10=My Funny Valentine
TTITLE11=Autumn Leaves
TTITLE12=You Look Good To Me
TTITLE13=The Preacher
TTITLE14=My Funny Valentine
EXTD=YEAR: 1965
EXTT0=
EXTT1=
EXTT2=
EXTT3=
EXTT4=
EXTT5=
EXTT6=
EXTT7=
EXTT8=
EXTT9=
EXTT10=
EXTT11=
EXTT12=
EXTT13=
EXTT14=
PLAYORDER=
